<svg width="877" height="968" viewBox="0 0 877 968" fill="none" xmlns="http://www.w3.org/2000/svg">
<g clip-path="url(#clip0_493_2)">
<mask id="mask0_493_2" style="mask-type:luminance" maskUnits="userSpaceOnUse" x="0" y="0" width="877" height="968">
<path d="M877 0H0V968H877V0Z" fill="white"/>
</mask>
<g mask="url(#mask0_493_2)">
<path d="M25 725.5C-190.667 725.5 -365.5 550.667 -365.5 335C-365.5 119.333 -190.667 -55.5 25 -55.5C240.667 -55.5 415.5 119.333 415.5 335C415.5 550.667 240.667 725.5 25 725.5Z" stroke="#3F20FF"/>
<path opacity="0.3" d="M25 802.5C-233.193 802.5 -442.5 593.193 -442.5 335C-442.5 76.8069 -233.193 -132.5 25 -132.5C283.193 -132.5 492.5 76.8069 492.5 335C492.5 593.193 283.193 802.5 25 802.5Z" stroke="#3F20FF"/>
<path opacity="0.1" d="M25 892.5C-282.899 892.5 -532.5 642.899 -532.5 335C-532.5 27.1013 -282.899 -222.5 25 -222.5C332.899 -222.5 582.5 27.1013 582.5 335C582.5 642.899 332.899 892.5 25 892.5Z" stroke="#3F20FF"/>
<g filter="url(#filter0_f_493_2)">
<path d="M38 450C-283.982 450 -545 347.249 -545 220.5C-545 93.7506 -283.982 -9 38 -9C359.982 -9 621 93.7506 621 220.5C621 347.249 359.982 450 38 450Z" fill="#3F20FF"/>
</g>
<g filter="url(#filter1_f_493_2)">
<path d="M-163 411C-307.699 411 -425 328.397 -425 226.5C-425 124.603 -307.699 42 -163 42C-18.3014 42 99 124.603 99 226.5C99 328.397 -18.3014 411 -163 411Z" fill="white"/>
</g>
</g>
<g style="mix-blend-mode:color-burn" filter="url(#filter2_d_493_2)">
<path d="M118.744 264.6L119 264.344H154.072C177.624 264.344 189.613 264.6 190.04 265.112C190.211 265.539 189.443 270.659 187.736 280.472C185.859 290.541 184.92 295.619 184.92 295.704C184.664 296.131 183.512 296.344 181.464 296.344C179.416 296.344 178.307 296.088 178.136 295.576C177.965 295.235 178.051 293.955 178.392 291.736C179.672 284.483 180.013 279.576 179.416 277.016C179.331 275.992 178.819 275.096 177.88 274.328C177.112 273.56 176.003 272.92 174.552 272.408C172.76 271.811 169.901 271.512 165.976 271.512C161.965 271.512 159.789 271.768 159.448 272.28L141.784 343.064C142.467 343.491 145.752 343.747 151.64 343.832C155.565 343.832 157.699 344.131 158.04 344.728C158.125 344.984 157.997 345.965 157.656 347.672C157.229 349.293 156.845 350.275 156.504 350.616L156.12 351H153.816C142.723 350.573 129.752 350.531 114.904 350.872C111.576 350.957 109.741 350.701 109.4 350.104C109.315 349.848 109.443 348.867 109.784 347.16C110.211 345.539 110.595 344.557 110.936 344.216L111.32 343.832H115.032C120.579 343.832 124.035 343.704 125.4 343.448C126.339 343.192 126.851 343.064 126.936 343.064C127.363 342.893 127.661 342.637 127.832 342.296C128.429 341.016 131.459 329.283 136.92 307.096C142.808 283.544 145.709 271.768 145.624 271.768C145.368 271.597 143.107 271.512 138.84 271.512C135.768 271.597 133.891 271.725 133.208 271.896C131.16 272.237 129.411 272.792 127.96 273.56C126.424 274.328 125.187 275.181 124.248 276.12C122.115 278.253 119.725 283.331 117.08 291.352C116.056 294.168 115.544 295.619 115.544 295.704C115.203 296.131 114.051 296.344 112.088 296.344C110.04 296.344 108.931 296.088 108.76 295.576C108.589 295.235 108.504 295.021 108.504 294.936L118.232 265.24C118.232 264.984 118.403 264.771 118.744 264.6ZM210.369 264.6L210.625 264.344H245.697C269.249 264.344 281.238 264.6 281.665 265.112C281.836 265.539 281.068 270.659 279.361 280.472C277.484 290.541 276.545 295.619 276.545 295.704C276.289 296.131 275.137 296.344 273.089 296.344C271.041 296.344 269.932 296.088 269.761 295.576C269.59 295.235 269.676 293.955 270.017 291.736C271.297 284.483 271.638 279.576 271.041 277.016C270.956 275.992 270.444 275.096 269.505 274.328C268.737 273.56 267.628 272.92 266.177 272.408C264.385 271.811 261.526 271.512 257.601 271.512C253.59 271.512 251.414 271.768 251.073 272.28L233.409 343.064C234.092 343.491 237.377 343.747 243.265 343.832C247.19 343.832 249.324 344.131 249.665 344.728C249.75 344.984 249.622 345.965 249.281 347.672C248.854 349.293 248.47 350.275 248.129 350.616L247.745 351H245.441C234.348 350.573 221.377 350.531 206.529 350.872C203.201 350.957 201.366 350.701 201.025 350.104C200.94 349.848 201.068 348.867 201.409 347.16C201.836 345.539 202.22 344.557 202.561 344.216L202.945 343.832H206.657C212.204 343.832 215.66 343.704 217.025 343.448C217.964 343.192 218.476 343.064 218.561 343.064C218.988 342.893 219.286 342.637 219.457 342.296C220.054 341.016 223.084 329.283 228.545 307.096C234.433 283.544 237.334 271.768 237.249 271.768C236.993 271.597 234.732 271.512 230.465 271.512C227.393 271.597 225.516 271.725 224.833 271.896C222.785 272.237 221.036 272.792 219.585 273.56C218.049 274.328 216.812 275.181 215.873 276.12C213.74 278.253 211.35 283.331 208.705 291.352C207.681 294.168 207.169 295.619 207.169 295.704C206.828 296.131 205.676 296.344 203.713 296.344C201.665 296.344 200.556 296.088 200.385 295.576C200.214 295.235 200.129 295.021 200.129 294.936L209.857 265.24C209.857 264.984 210.028 264.771 210.369 264.6Z" fill="#AAAAAA"/>
<path d="M118.744 264.6L118.968 265.047L119.04 265.011L119.098 264.954L118.744 264.6ZM119 264.344V263.844H118.793L118.646 263.99L119 264.344ZM190.04 265.112L190.504 264.926L190.475 264.853L190.424 264.792L190.04 265.112ZM187.736 280.472L188.228 280.564L188.229 280.558L187.736 280.472ZM184.92 295.704L185.349 295.961L185.42 295.842V295.704H184.92ZM178.136 295.576L178.61 295.418L178.599 295.384L178.583 295.352L178.136 295.576ZM178.392 291.736L177.899 291.649L177.898 291.66L178.392 291.736ZM179.416 277.016L178.918 277.058L178.921 277.094L178.929 277.13L179.416 277.016ZM177.88 274.328L177.526 274.682L177.544 274.699L177.563 274.715L177.88 274.328ZM174.552 272.408L174.718 271.936L174.71 271.934L174.552 272.408ZM159.448 272.28L159.032 272.003L158.984 272.075L158.963 272.159L159.448 272.28ZM141.784 343.064L141.299 342.943L141.211 343.295L141.519 343.488L141.784 343.064ZM151.64 343.832L151.633 344.332H151.64V343.832ZM158.04 344.728L158.514 344.57L158.499 344.523L158.474 344.48L158.04 344.728ZM157.656 347.672L158.14 347.799L158.143 347.785L158.146 347.77L157.656 347.672ZM156.504 350.616L156.858 350.97L156.858 350.97L156.504 350.616ZM156.12 351V351.5H156.327L156.474 351.354L156.12 351ZM153.816 351L153.797 351.5L153.806 351.5H153.816V351ZM114.904 350.872L114.893 350.372L114.891 350.372L114.904 350.872ZM109.4 350.104L108.926 350.262L108.941 350.309L108.966 350.352L109.4 350.104ZM109.784 347.16L109.3 347.033L109.297 347.047L109.294 347.062L109.784 347.16ZM110.936 344.216L110.582 343.862L110.582 343.862L110.936 344.216ZM111.32 343.832V343.332H111.113L110.966 343.478L111.32 343.832ZM125.4 343.448L125.492 343.939L125.512 343.936L125.532 343.93L125.4 343.448ZM126.936 343.064V343.564H127.032L127.122 343.528L126.936 343.064ZM127.832 342.296L128.279 342.52L128.285 342.507L127.832 342.296ZM136.92 307.096L136.435 306.975L136.434 306.976L136.92 307.096ZM145.624 271.768L145.347 272.184L145.473 272.268H145.624V271.768ZM138.84 271.512V271.012L138.826 271.012L138.84 271.512ZM133.208 271.896L133.29 272.389L133.31 272.386L133.329 272.381L133.208 271.896ZM127.96 273.56L128.184 274.007L128.194 274.002L127.96 273.56ZM124.248 276.12L123.894 275.766L123.894 275.766L124.248 276.12ZM117.08 291.352L117.55 291.523L117.552 291.516L117.555 291.509L117.08 291.352ZM115.544 295.704L115.934 296.016L116.044 295.879V295.704H115.544ZM108.76 295.576L109.234 295.418L109.223 295.384L109.207 295.352L108.76 295.576ZM108.504 294.936L108.029 294.78L108.004 294.856V294.936H108.504ZM118.232 265.24L118.707 265.396L118.732 265.32V265.24H118.232ZM119.098 264.954L119.354 264.698L118.646 263.99L118.39 264.246L119.098 264.954ZM119 264.844H154.072V263.844H119V264.844ZM154.072 264.844C165.847 264.844 174.728 264.908 180.717 265.036C183.713 265.1 185.979 265.18 187.521 265.275C188.293 265.323 188.875 265.374 189.271 265.428C189.471 265.454 189.611 265.48 189.7 265.503C189.722 265.509 189.738 265.514 189.75 265.517C189.756 265.519 189.76 265.521 189.764 265.522C189.767 265.523 189.768 265.524 189.768 265.524C189.768 265.524 189.766 265.523 189.762 265.521C189.758 265.519 189.751 265.515 189.742 265.509C189.727 265.5 189.692 265.476 189.656 265.432L190.424 264.792C190.334 264.683 190.22 264.63 190.164 264.606C190.095 264.576 190.02 264.553 189.949 264.535C189.804 264.498 189.62 264.466 189.405 264.436C188.972 264.378 188.363 264.325 187.583 264.277C186.021 264.18 183.738 264.1 180.739 264.036C174.739 263.908 165.849 263.844 154.072 263.844V264.844ZM189.576 265.298C189.553 265.242 189.559 265.215 189.562 265.273C189.564 265.315 189.564 265.38 189.56 265.472C189.553 265.656 189.532 265.916 189.495 266.258C189.421 266.941 189.289 267.92 189.098 269.198C188.714 271.752 188.097 275.481 187.243 280.386L188.229 280.558C189.082 275.65 189.702 271.912 190.086 269.346C190.279 268.064 190.413 267.069 190.489 266.366C190.527 266.015 190.551 265.728 190.56 265.512C190.564 265.404 190.565 265.306 190.56 265.221C190.557 265.153 190.548 265.036 190.504 264.926L189.576 265.298ZM187.244 280.38C186.306 285.415 185.602 289.202 185.132 291.741C184.898 293.011 184.722 293.968 184.604 294.615C184.545 294.937 184.501 295.183 184.472 295.351C184.457 295.435 184.445 295.501 184.438 295.548C184.434 295.571 184.431 295.592 184.428 295.608C184.427 295.616 184.426 295.626 184.424 295.636C184.424 295.641 184.423 295.648 184.422 295.656C184.422 295.662 184.42 295.68 184.42 295.704H185.42C185.42 295.747 185.413 295.784 185.417 295.754C185.419 295.746 185.421 295.732 185.424 295.711C185.431 295.669 185.442 295.608 185.456 295.525C185.486 295.359 185.529 295.116 185.588 294.793C185.705 294.149 185.881 293.192 186.116 291.923C186.585 289.385 187.289 285.598 188.228 280.564L187.244 280.38ZM184.491 295.447C184.501 295.43 184.484 295.469 184.353 295.529C184.228 295.586 184.039 295.643 183.773 295.692C183.241 295.791 182.476 295.844 181.464 295.844V296.844C182.5 296.844 183.335 296.79 183.955 296.676C184.265 296.618 184.54 296.542 184.767 296.439C184.988 296.339 185.211 296.191 185.349 295.961L184.491 295.447ZM181.464 295.844C180.453 295.844 179.708 295.78 179.208 295.665C178.958 295.607 178.795 295.542 178.697 295.483C178.601 295.425 178.603 295.396 178.61 295.418L177.662 295.734C177.754 296.012 177.959 296.207 178.183 296.341C178.405 296.474 178.679 296.569 178.984 296.639C179.593 296.78 180.427 296.844 181.464 296.844V295.844ZM178.583 295.352C178.59 295.366 178.566 295.312 178.555 295.118C178.546 294.943 178.55 294.703 178.571 294.393C178.612 293.774 178.716 292.916 178.886 291.812L177.898 291.66C177.726 292.775 177.617 293.666 177.573 294.327C177.551 294.657 177.545 294.94 177.557 295.17C177.568 295.381 177.597 295.615 177.689 295.8L178.583 295.352ZM178.884 291.823C179.526 288.187 179.934 285.128 180.107 282.651C180.278 280.183 180.219 278.256 179.903 276.902L178.929 277.13C179.21 278.336 179.279 280.142 179.109 282.581C178.94 285.011 178.538 288.032 177.9 291.649L178.884 291.823ZM179.914 276.974C179.816 275.791 179.22 274.778 178.197 273.941L177.563 274.715C178.418 275.414 178.846 276.193 178.918 277.058L179.914 276.974ZM178.234 273.974C177.396 273.136 176.212 272.464 174.718 271.937L174.386 272.879C175.793 273.376 176.828 273.984 177.526 274.682L178.234 273.974ZM174.71 271.934C172.837 271.309 169.91 271.012 165.976 271.012V272.012C169.893 272.012 172.683 272.312 174.394 272.882L174.71 271.934ZM165.976 271.012C163.964 271.012 162.395 271.076 161.278 271.207C160.721 271.273 160.258 271.357 159.902 271.466C159.724 271.52 159.559 271.585 159.418 271.664C159.28 271.741 159.135 271.849 159.032 272.003L159.864 272.557C159.847 272.583 159.844 272.571 159.906 272.536C159.965 272.503 160.057 272.464 160.194 272.422C160.467 272.339 160.863 272.263 161.394 272.201C162.453 272.076 163.977 272.012 165.976 272.012V271.012ZM158.963 272.159L141.299 342.943L142.269 343.185L159.933 272.401L158.963 272.159ZM141.519 343.488C141.783 343.653 142.208 343.76 142.699 343.845C143.217 343.934 143.893 344.01 144.721 344.074C146.379 344.204 148.685 344.289 151.633 344.332L151.647 343.332C148.707 343.289 146.426 343.204 144.799 343.078C143.985 343.014 143.343 342.941 142.869 342.859C142.368 342.773 142.127 342.688 142.049 342.64L141.519 343.488ZM151.64 344.332C153.595 344.332 155.082 344.407 156.115 344.551C156.632 344.624 157.015 344.711 157.278 344.806C157.564 344.91 157.613 344.989 157.606 344.976L158.474 344.48C158.296 344.168 157.951 343.986 157.618 343.866C157.262 343.737 156.802 343.638 156.253 343.561C155.152 343.407 153.61 343.332 151.64 343.332V344.332ZM157.566 344.886C157.556 344.857 157.57 344.886 157.564 345.039C157.56 345.171 157.543 345.354 157.512 345.591C157.45 346.065 157.336 346.725 157.166 347.574L158.146 347.77C158.318 346.913 158.438 346.228 158.504 345.721C158.537 345.468 158.558 345.25 158.564 345.073C158.569 344.916 158.567 344.727 158.514 344.57L157.566 344.886ZM157.172 347.545C156.962 348.346 156.765 348.976 156.582 349.442C156.393 349.927 156.242 350.171 156.15 350.262L156.858 350.97C157.107 350.72 157.319 350.303 157.514 349.806C157.716 349.29 157.924 348.619 158.14 347.799L157.172 347.545ZM156.15 350.262L155.766 350.646L156.474 351.354L156.858 350.97L156.15 350.262ZM156.12 350.5H153.816V351.5H156.12V350.5ZM153.835 350.5C142.729 350.073 129.748 350.031 114.893 350.372L114.915 351.372C129.756 351.031 142.716 351.073 153.797 351.5L153.835 350.5ZM114.891 350.372C113.237 350.415 111.978 350.371 111.101 350.249C110.662 350.187 110.339 350.109 110.119 350.023C110.009 349.98 109.936 349.939 109.889 349.906C109.843 349.872 109.833 349.853 109.834 349.856L108.966 350.352C109.136 350.649 109.443 350.832 109.753 350.953C110.077 351.08 110.485 351.173 110.963 351.239C111.921 351.373 113.243 351.415 114.917 351.372L114.891 350.372ZM109.874 349.946C109.884 349.975 109.87 349.946 109.876 349.793C109.88 349.661 109.897 349.478 109.928 349.241C109.99 348.767 110.104 348.107 110.274 347.258L109.294 347.062C109.122 347.919 109.002 348.604 108.936 349.111C108.903 349.364 108.882 349.582 108.876 349.759C108.871 349.916 108.873 350.105 108.926 350.262L109.874 349.946ZM110.268 347.287C110.478 346.486 110.675 345.856 110.858 345.39C111.047 344.905 111.198 344.661 111.29 344.57L110.582 343.862C110.333 344.112 110.121 344.529 109.926 345.026C109.725 345.542 109.516 346.213 109.3 347.033L110.268 347.287ZM111.29 344.57L111.674 344.186L110.966 343.478L110.582 343.862L111.29 344.57ZM111.32 344.332H115.032V343.332H111.32V344.332ZM115.032 344.332C120.561 344.332 124.071 344.206 125.492 343.939L125.308 342.957C123.999 343.202 120.596 343.332 115.032 343.332V344.332ZM125.532 343.93C126 343.803 126.358 343.708 126.609 343.645C126.735 343.614 126.83 343.591 126.897 343.577C126.987 343.558 126.979 343.564 126.936 343.564V342.564C126.851 342.564 126.746 342.586 126.687 342.599C126.604 342.617 126.497 342.642 126.367 342.675C126.106 342.74 125.739 342.837 125.268 342.966L125.532 343.93ZM127.122 343.528C127.638 343.322 128.043 342.992 128.279 342.52L127.385 342.072C127.28 342.283 127.088 342.465 126.75 342.6L127.122 343.528ZM128.285 342.507C128.456 342.141 128.77 341.117 129.218 339.51C129.672 337.879 130.279 335.595 131.036 332.661C132.552 326.792 134.675 318.309 137.406 307.216L136.434 306.976C133.704 318.069 131.582 326.547 130.068 332.411C129.311 335.343 128.706 337.62 128.254 339.242C127.796 340.888 127.506 341.811 127.379 342.085L128.285 342.507ZM137.405 307.217C140.349 295.441 142.547 286.608 143.997 280.72C144.723 277.775 145.262 275.566 145.614 274.092C145.79 273.356 145.92 272.801 146.004 272.43C146.045 272.245 146.076 272.101 146.096 272.002C146.105 271.954 146.113 271.908 146.119 271.871C146.121 271.855 146.125 271.823 146.126 271.787C146.126 271.775 146.127 271.727 146.115 271.667C146.109 271.641 146.092 271.568 146.04 271.489C145.977 271.397 145.84 271.268 145.624 271.268V272.268C145.409 272.268 145.272 272.139 145.21 272.048C145.158 271.97 145.141 271.898 145.136 271.873C145.124 271.817 145.126 271.772 145.126 271.766C145.126 271.742 145.129 271.727 145.128 271.734C145.127 271.743 145.123 271.766 145.114 271.81C145.098 271.895 145.069 272.027 145.028 272.21C144.946 272.575 144.818 273.124 144.642 273.86C144.29 275.33 143.752 277.537 143.027 280.48C141.576 286.368 139.379 295.199 136.435 306.975L137.405 307.217ZM145.901 271.352C145.777 271.269 145.621 271.235 145.531 271.217C145.414 271.194 145.271 271.175 145.107 271.159C144.776 271.125 144.324 271.098 143.755 271.076C142.615 271.033 140.975 271.012 138.84 271.012V272.012C140.972 272.012 142.596 272.033 143.717 272.076C144.279 272.097 144.706 272.123 145.005 272.153C145.156 272.169 145.264 272.184 145.337 272.199C145.437 272.218 145.407 272.224 145.347 272.184L145.901 271.352ZM138.826 271.012C137.287 271.055 136.042 271.109 135.094 271.173C134.159 271.237 133.477 271.313 133.087 271.411L133.329 272.381C133.622 272.308 134.22 272.235 135.162 272.171C136.091 272.107 137.321 272.054 138.854 272.012L138.826 271.012ZM133.126 271.403C131.038 271.751 129.235 272.319 127.726 273.118L128.194 274.002C129.586 273.265 131.282 272.724 133.29 272.389L133.126 271.403ZM127.736 273.113C126.166 273.898 124.88 274.78 123.894 275.766L124.602 276.474C125.493 275.582 126.682 274.758 128.184 274.007L127.736 273.113ZM123.894 275.766C122.766 276.895 121.605 278.761 120.404 281.315C119.197 283.879 117.931 287.174 116.605 291.195L117.555 291.509C118.874 287.509 120.125 284.255 121.308 281.741C122.496 279.218 123.597 277.478 124.602 276.474L123.894 275.766ZM116.61 291.181C116.098 292.59 115.713 293.658 115.457 294.386C115.328 294.749 115.231 295.03 115.166 295.226C115.133 295.323 115.107 295.404 115.089 295.464C115.08 295.494 115.072 295.524 115.065 295.551C115.064 295.555 115.044 295.626 115.044 295.704H116.044C116.044 295.771 116.028 295.821 116.035 295.793C116.036 295.788 116.04 295.775 116.047 295.752C116.061 295.706 116.083 295.637 116.114 295.542C116.177 295.354 116.272 295.08 116.399 294.718C116.655 293.995 117.038 292.93 117.55 291.523L116.61 291.181ZM115.154 295.392C115.139 295.41 115.084 295.462 114.939 295.524C114.798 295.585 114.599 295.643 114.333 295.692C113.8 295.791 113.056 295.844 112.088 295.844V296.844C113.082 296.844 113.896 296.79 114.515 296.676C114.825 296.618 115.101 296.543 115.333 296.444C115.561 296.346 115.779 296.211 115.934 296.016L115.154 295.392ZM112.088 295.844C111.077 295.844 110.332 295.78 109.832 295.665C109.582 295.607 109.419 295.542 109.321 295.483C109.225 295.425 109.227 295.396 109.234 295.418L108.286 295.734C108.378 296.012 108.583 296.207 108.807 296.341C109.029 296.474 109.303 296.569 109.608 296.639C110.217 296.78 111.051 296.844 112.088 296.844V295.844ZM109.207 295.352C109.125 295.187 109.068 295.062 109.032 294.974C109.015 294.93 109.005 294.902 109.001 294.887C108.994 294.864 109.004 294.887 109.004 294.936H108.004C108.004 295.027 108.024 295.11 108.039 295.161C108.056 295.221 108.079 295.283 108.104 295.346C108.154 295.471 108.225 295.623 108.313 295.8L109.207 295.352ZM108.979 295.092L118.707 265.396L117.757 265.084L108.029 294.78L108.979 295.092ZM118.732 265.24C118.732 265.233 118.731 265.225 118.75 265.2C118.776 265.168 118.838 265.112 118.968 265.047L118.52 264.153C118.103 264.362 117.732 264.709 117.732 265.24H118.732ZM210.369 264.6L210.593 265.047L210.665 265.011L210.723 264.954L210.369 264.6ZM210.625 264.344V263.844H210.418L210.271 263.99L210.625 264.344ZM281.665 265.112L282.129 264.926L282.1 264.853L282.049 264.792L281.665 265.112ZM279.361 280.472L279.853 280.564L279.854 280.558L279.361 280.472ZM276.545 295.704L276.974 295.961L277.045 295.842V295.704H276.545ZM269.761 295.576L270.235 295.418L270.224 295.384L270.208 295.352L269.761 295.576ZM270.017 291.736L269.524 291.649L269.523 291.66L270.017 291.736ZM271.041 277.016L270.543 277.058L270.546 277.094L270.554 277.13L271.041 277.016ZM269.505 274.328L269.151 274.682L269.169 274.699L269.188 274.715L269.505 274.328ZM266.177 272.408L266.343 271.936L266.335 271.934L266.177 272.408ZM251.073 272.28L250.657 272.003L250.609 272.075L250.588 272.159L251.073 272.28ZM233.409 343.064L232.924 342.943L232.836 343.295L233.144 343.488L233.409 343.064ZM243.265 343.832L243.258 344.332H243.265V343.832ZM249.665 344.728L250.139 344.57L250.124 344.523L250.099 344.48L249.665 344.728ZM249.281 347.672L249.765 347.799L249.768 347.785L249.771 347.77L249.281 347.672ZM248.129 350.616L248.483 350.97L248.483 350.97L248.129 350.616ZM247.745 351V351.5H247.952L248.099 351.354L247.745 351ZM245.441 351L245.422 351.5L245.431 351.5H245.441V351ZM206.529 350.872L206.518 350.372L206.516 350.372L206.529 350.872ZM201.025 350.104L200.551 350.262L200.566 350.309L200.591 350.352L201.025 350.104ZM201.409 347.16L200.925 347.033L200.922 347.047L200.919 347.062L201.409 347.16ZM202.561 344.216L202.207 343.862L202.207 343.862L202.561 344.216ZM202.945 343.832V343.332H202.738L202.591 343.478L202.945 343.832ZM217.025 343.448L217.117 343.939L217.137 343.936L217.157 343.93L217.025 343.448ZM218.561 343.064V343.564H218.657L218.747 343.528L218.561 343.064ZM219.457 342.296L219.904 342.52L219.91 342.507L219.457 342.296ZM228.545 307.096L228.06 306.975L228.059 306.976L228.545 307.096ZM237.249 271.768L236.972 272.184L237.098 272.268H237.249V271.768ZM230.465 271.512V271.012L230.451 271.012L230.465 271.512ZM224.833 271.896L224.915 272.389L224.935 272.386L224.954 272.381L224.833 271.896ZM219.585 273.56L219.809 274.007L219.819 274.002L219.585 273.56ZM215.873 276.12L215.519 275.766L215.519 275.766L215.873 276.12ZM208.705 291.352L209.175 291.523L209.177 291.516L209.18 291.509L208.705 291.352ZM207.169 295.704L207.559 296.016L207.669 295.879V295.704H207.169ZM200.385 295.576L200.859 295.418L200.848 295.384L200.832 295.352L200.385 295.576ZM200.129 294.936L199.654 294.78L199.629 294.856V294.936H200.129ZM209.857 265.24L210.332 265.396L210.357 265.32V265.24H209.857ZM210.723 264.954L210.979 264.698L210.271 263.99L210.015 264.246L210.723 264.954ZM210.625 264.844H245.697V263.844H210.625V264.844ZM245.697 264.844C257.472 264.844 266.353 264.908 272.342 265.036C275.338 265.1 277.604 265.18 279.146 265.275C279.918 265.323 280.5 265.374 280.896 265.428C281.096 265.454 281.236 265.48 281.325 265.503C281.347 265.509 281.363 265.514 281.375 265.517C281.381 265.519 281.385 265.521 281.389 265.522C281.392 265.523 281.393 265.524 281.393 265.524C281.393 265.524 281.391 265.523 281.387 265.521C281.383 265.519 281.376 265.515 281.367 265.509C281.352 265.5 281.317 265.476 281.281 265.432L282.049 264.792C281.959 264.683 281.845 264.63 281.789 264.606C281.72 264.576 281.645 264.553 281.574 264.535C281.429 264.498 281.245 264.466 281.03 264.436C280.597 264.378 279.988 264.325 279.208 264.277C277.646 264.18 275.363 264.1 272.364 264.036C266.364 263.908 257.474 263.844 245.697 263.844V264.844ZM281.201 265.298C281.178 265.242 281.184 265.215 281.187 265.273C281.189 265.315 281.189 265.38 281.185 265.472C281.178 265.656 281.157 265.916 281.12 266.258C281.046 266.941 280.914 267.92 280.723 269.198C280.339 271.752 279.722 275.481 278.868 280.386L279.854 280.558C280.707 275.65 281.327 271.912 281.711 269.346C281.904 268.064 282.038 267.069 282.114 266.366C282.152 266.015 282.176 265.728 282.185 265.512C282.189 265.404 282.19 265.306 282.185 265.221C282.182 265.153 282.173 265.036 282.129 264.926L281.201 265.298ZM278.869 280.38C277.931 285.415 277.227 289.202 276.757 291.741C276.523 293.011 276.347 293.968 276.229 294.615C276.17 294.937 276.126 295.183 276.097 295.351C276.082 295.435 276.07 295.501 276.063 295.548C276.059 295.571 276.056 295.592 276.053 295.608C276.052 295.616 276.051 295.626 276.049 295.636C276.049 295.641 276.048 295.648 276.047 295.656C276.047 295.662 276.045 295.68 276.045 295.704H277.045C277.045 295.747 277.038 295.784 277.042 295.754C277.044 295.746 277.046 295.732 277.049 295.711C277.056 295.669 277.067 295.608 277.081 295.525C277.111 295.359 277.154 295.116 277.213 294.793C277.33 294.149 277.506 293.192 277.741 291.923C278.21 289.385 278.914 285.598 279.853 280.564L278.869 280.38ZM276.116 295.447C276.126 295.43 276.109 295.469 275.978 295.529C275.853 295.586 275.664 295.643 275.398 295.692C274.866 295.791 274.101 295.844 273.089 295.844V296.844C274.125 296.844 274.96 296.79 275.58 296.676C275.89 296.618 276.165 296.542 276.392 296.439C276.613 296.339 276.836 296.191 276.974 295.961L276.116 295.447ZM273.089 295.844C272.078 295.844 271.333 295.78 270.833 295.665C270.583 295.607 270.42 295.542 270.322 295.483C270.226 295.425 270.228 295.396 270.235 295.418L269.287 295.734C269.379 296.012 269.584 296.207 269.808 296.341C270.03 296.474 270.304 296.569 270.609 296.639C271.218 296.78 272.052 296.844 273.089 296.844V295.844ZM270.208 295.352C270.215 295.366 270.191 295.312 270.18 295.118C270.171 294.943 270.175 294.703 270.196 294.393C270.237 293.774 270.341 292.916 270.511 291.812L269.523 291.66C269.351 292.775 269.242 293.666 269.198 294.327C269.176 294.657 269.17 294.94 269.182 295.17C269.193 295.381 269.222 295.615 269.314 295.8L270.208 295.352ZM270.509 291.823C271.151 288.187 271.559 285.128 271.732 282.651C271.903 280.183 271.844 278.256 271.528 276.902L270.554 277.13C270.835 278.336 270.904 280.142 270.734 282.581C270.565 285.011 270.163 288.032 269.525 291.649L270.509 291.823ZM271.539 276.974C271.441 275.791 270.845 274.778 269.822 273.941L269.188 274.715C270.043 275.414 270.471 276.193 270.543 277.058L271.539 276.974ZM269.859 273.974C269.021 273.136 267.837 272.464 266.343 271.937L266.011 272.879C267.418 273.376 268.453 273.984 269.151 274.682L269.859 273.974ZM266.335 271.934C264.462 271.309 261.535 271.012 257.601 271.012V272.012C261.518 272.012 264.308 272.312 266.019 272.882L266.335 271.934ZM257.601 271.012C255.589 271.012 254.02 271.076 252.903 271.207C252.346 271.273 251.883 271.357 251.527 271.466C251.349 271.52 251.184 271.585 251.043 271.664C250.905 271.741 250.76 271.849 250.657 272.003L251.489 272.557C251.472 272.583 251.469 272.571 251.531 272.536C251.59 272.503 251.682 272.464 251.819 272.422C252.092 272.339 252.488 272.263 253.019 272.201C254.078 272.076 255.602 272.012 257.601 272.012V271.012ZM250.588 272.159L232.924 342.943L233.894 343.185L251.558 272.401L250.588 272.159ZM233.144 343.488C233.408 343.653 233.833 343.76 234.324 343.845C234.842 343.934 235.518 344.01 236.346 344.074C238.004 344.204 240.31 344.289 243.258 344.332L243.272 343.332C240.332 343.289 238.051 343.204 236.424 343.078C235.61 343.014 234.968 342.941 234.494 342.859C233.993 342.773 233.752 342.688 233.674 342.64L233.144 343.488ZM243.265 344.332C245.22 344.332 246.707 344.407 247.74 344.551C248.257 344.624 248.64 344.711 248.903 344.806C249.189 344.91 249.238 344.989 249.231 344.976L250.099 344.48C249.921 344.168 249.576 343.986 249.243 343.866C248.887 343.737 248.427 343.638 247.878 343.561C246.777 343.407 245.235 343.332 243.265 343.332V344.332ZM249.191 344.886C249.181 344.857 249.195 344.886 249.189 345.039C249.185 345.171 249.168 345.354 249.137 345.591C249.075 346.065 248.961 346.725 248.791 347.574L249.771 347.77C249.943 346.913 250.063 346.228 250.129 345.721C250.162 345.468 250.183 345.25 250.189 345.073C250.194 344.916 250.192 344.727 250.139 344.57L249.191 344.886ZM248.797 347.545C248.587 348.346 248.39 348.976 248.207 349.442C248.018 349.927 247.867 350.171 247.775 350.262L248.483 350.97C248.732 350.72 248.944 350.303 249.139 349.806C249.341 349.29 249.549 348.619 249.765 347.799L248.797 347.545ZM247.775 350.262L247.391 350.646L248.099 351.354L248.483 350.97L247.775 350.262ZM247.745 350.5H245.441V351.5H247.745V350.5ZM245.46 350.5C234.354 350.073 221.373 350.031 206.518 350.372L206.54 351.372C221.381 351.031 234.341 351.073 245.422 351.5L245.46 350.5ZM206.516 350.372C204.862 350.415 203.603 350.371 202.726 350.249C202.287 350.187 201.964 350.109 201.744 350.023C201.634 349.98 201.561 349.939 201.514 349.906C201.468 349.872 201.458 349.853 201.459 349.856L200.591 350.352C200.761 350.649 201.068 350.832 201.378 350.953C201.702 351.08 202.11 351.173 202.588 351.239C203.546 351.373 204.868 351.415 206.542 351.372L206.516 350.372ZM201.499 349.946C201.509 349.975 201.495 349.946 201.501 349.793C201.505 349.661 201.522 349.478 201.553 349.241C201.615 348.767 201.729 348.107 201.899 347.258L200.919 347.062C200.747 347.919 200.627 348.604 200.561 349.111C200.528 349.364 200.507 349.582 200.501 349.759C200.496 349.916 200.498 350.105 200.551 350.262L201.499 349.946ZM201.893 347.287C202.103 346.486 202.3 345.856 202.483 345.39C202.672 344.905 202.823 344.661 202.915 344.57L202.207 343.862C201.958 344.112 201.746 344.529 201.551 345.026C201.35 345.542 201.141 346.213 200.925 347.033L201.893 347.287ZM202.915 344.57L203.299 344.186L202.591 343.478L202.207 343.862L202.915 344.57ZM202.945 344.332H206.657V343.332H202.945V344.332ZM206.657 344.332C212.186 344.332 215.696 344.206 217.117 343.939L216.933 342.957C215.624 343.202 212.221 343.332 206.657 343.332V344.332ZM217.157 343.93C217.625 343.803 217.983 343.708 218.234 343.645C218.36 343.614 218.455 343.591 218.522 343.577C218.612 343.558 218.604 343.564 218.561 343.564V342.564C218.476 342.564 218.371 342.586 218.312 342.599C218.229 342.617 218.122 342.642 217.992 342.675C217.731 342.74 217.364 342.837 216.893 342.966L217.157 343.93ZM218.747 343.528C219.263 343.322 219.668 342.992 219.904 342.52L219.01 342.072C218.905 342.283 218.713 342.465 218.375 342.6L218.747 343.528ZM219.91 342.507C220.081 342.141 220.395 341.117 220.843 339.51C221.297 337.879 221.904 335.595 222.661 332.661C224.177 326.792 226.3 318.309 229.031 307.216L228.059 306.976C225.329 318.069 223.207 326.547 221.693 332.411C220.936 335.343 220.331 337.62 219.879 339.242C219.421 340.888 219.131 341.811 219.004 342.085L219.91 342.507ZM229.03 307.217C231.974 295.441 234.172 286.608 235.622 280.72C236.348 277.775 236.887 275.566 237.239 274.092C237.415 273.356 237.545 272.801 237.629 272.43C237.67 272.245 237.701 272.101 237.721 272.002C237.73 271.954 237.738 271.908 237.744 271.871C237.746 271.855 237.75 271.823 237.751 271.787C237.751 271.775 237.752 271.727 237.74 271.667C237.734 271.641 237.717 271.568 237.665 271.489C237.602 271.397 237.465 271.268 237.249 271.268V272.268C237.034 272.268 236.897 272.139 236.835 272.048C236.783 271.97 236.766 271.898 236.761 271.873C236.749 271.817 236.751 271.772 236.751 271.766C236.751 271.742 236.754 271.727 236.753 271.734C236.752 271.743 236.748 271.766 236.739 271.81C236.723 271.895 236.694 272.027 236.653 272.21C236.571 272.575 236.443 273.124 236.267 273.86C235.915 275.33 235.377 277.537 234.652 280.48C233.201 286.368 231.004 295.199 228.06 306.975L229.03 307.217ZM237.526 271.352C237.402 271.269 237.246 271.235 237.156 271.217C237.039 271.194 236.896 271.175 236.732 271.159C236.401 271.125 235.949 271.098 235.38 271.076C234.24 271.033 232.6 271.012 230.465 271.012V272.012C232.597 272.012 234.221 272.033 235.342 272.076C235.904 272.097 236.331 272.123 236.63 272.153C236.781 272.169 236.889 272.184 236.962 272.199C237.062 272.218 237.032 272.224 236.972 272.184L237.526 271.352ZM230.451 271.012C228.912 271.055 227.667 271.109 226.719 271.173C225.784 271.237 225.102 271.313 224.712 271.411L224.954 272.381C225.247 272.308 225.845 272.235 226.787 272.171C227.716 272.107 228.946 272.054 230.479 272.012L230.451 271.012ZM224.751 271.403C222.663 271.751 220.86 272.319 219.351 273.118L219.819 274.002C221.211 273.265 222.907 272.724 224.915 272.389L224.751 271.403ZM219.361 273.113C217.791 273.898 216.505 274.78 215.519 275.766L216.227 276.474C217.118 275.582 218.307 274.758 219.809 274.007L219.361 273.113ZM215.519 275.766C214.391 276.895 213.23 278.761 212.029 281.315C210.822 283.879 209.556 287.174 208.23 291.195L209.18 291.509C210.499 287.509 211.75 284.255 212.933 281.741C214.121 279.218 215.222 277.478 216.227 276.474L215.519 275.766ZM208.235 291.181C207.723 292.59 207.338 293.658 207.082 294.386C206.953 294.749 206.856 295.03 206.791 295.226C206.758 295.323 206.732 295.404 206.714 295.464C206.705 295.494 206.697 295.524 206.69 295.551C206.689 295.555 206.669 295.626 206.669 295.704H207.669C207.669 295.771 207.653 295.821 207.66 295.793C207.661 295.788 207.665 295.775 207.672 295.752C207.686 295.706 207.708 295.637 207.739 295.542C207.802 295.354 207.897 295.08 208.024 294.718C208.28 293.995 208.663 292.93 209.175 291.523L208.235 291.181ZM206.779 295.392C206.764 295.41 206.709 295.462 206.564 295.524C206.423 295.585 206.224 295.643 205.958 295.692C205.425 295.791 204.681 295.844 203.713 295.844V296.844C204.707 296.844 205.521 296.79 206.14 296.676C206.45 296.618 206.726 296.543 206.958 296.444C207.186 296.346 207.404 296.211 207.559 296.016L206.779 295.392ZM203.713 295.844C202.702 295.844 201.957 295.78 201.457 295.665C201.207 295.607 201.044 295.542 200.946 295.483C200.85 295.425 200.852 295.396 200.859 295.418L199.911 295.734C200.003 296.012 200.208 296.207 200.432 296.341C200.654 296.474 200.928 296.569 201.233 296.639C201.842 296.78 202.676 296.844 203.713 296.844V295.844ZM200.832 295.352C200.75 295.187 200.693 295.062 200.657 294.974C200.64 294.93 200.63 294.902 200.626 294.887C200.619 294.864 200.629 294.887 200.629 294.936H199.629C199.629 295.027 199.649 295.11 199.664 295.161C199.681 295.221 199.704 295.283 199.729 295.346C199.779 295.471 199.85 295.623 199.938 295.8L200.832 295.352ZM200.604 295.092L210.332 265.396L209.382 265.084L199.654 294.78L200.604 295.092ZM210.357 265.24C210.357 265.233 210.356 265.225 210.375 265.2C210.401 265.168 210.463 265.112 210.593 265.047L210.145 264.153C209.728 264.362 209.357 264.709 209.357 265.24H210.357Z" fill="white"/>
<path d="M324.144 355H291.12V348.344L301.872 345.912V272.824L291.12 270.264V263.608H324.144V270.264L313.392 272.824V345.912L324.144 348.344V355Z" fill="white"/>
<path d="M324.144 355V355.5H324.644V355H324.144ZM291.12 355H290.62V355.5H291.12V355ZM291.12 348.344L291.01 347.856L290.62 347.944V348.344H291.12ZM301.872 345.912L301.982 346.4L302.372 346.312V345.912H301.872ZM301.872 272.824H302.372V272.429L301.988 272.338L301.872 272.824ZM291.12 270.264H290.62V270.659L291.004 270.75L291.12 270.264ZM291.12 263.608V263.108H290.62V263.608H291.12ZM324.144 263.608H324.644V263.108H324.144V263.608ZM324.144 270.264L324.26 270.75L324.644 270.659V270.264H324.144ZM313.392 272.824L313.276 272.338L312.892 272.429V272.824H313.392ZM313.392 345.912H312.892V346.312L313.282 346.4L313.392 345.912ZM324.144 348.344H324.644V347.944L324.254 347.856L324.144 348.344ZM324.144 354.5H291.12V355.5H324.144V354.5ZM291.62 355V348.344H290.62V355H291.62ZM291.23 348.832L301.982 346.4L301.762 345.424L291.01 347.856L291.23 348.832ZM302.372 345.912V272.824H301.372V345.912H302.372ZM301.988 272.338L291.236 269.778L291.004 270.75L301.756 273.31L301.988 272.338ZM291.62 270.264V263.608H290.62V270.264H291.62ZM291.12 264.108H324.144V263.108H291.12V264.108ZM323.644 263.608V270.264H324.644V263.608H323.644ZM324.028 269.778L313.276 272.338L313.508 273.31L324.26 270.75L324.028 269.778ZM312.892 272.824V345.912H313.892V272.824H312.892ZM313.282 346.4L324.034 348.832L324.254 347.856L313.502 345.424L313.282 346.4ZM323.644 348.344V355H324.644V348.344H323.644Z" fill="#AAAAAA"/>
</g>
</g>
<defs>
<filter id="filter0_f_493_2" x="-769" y="-233" width="1614" height="907" filterUnits="userSpaceOnUse" color-interpolation-filters="sRGB">
<feFlood flood-opacity="0" result="BackgroundImageFix"/>
<feBlend mode="normal" in="SourceGraphic" in2="BackgroundImageFix" result="shape"/>
<feGaussianBlur stdDeviation="112" result="effect1_foregroundBlur_493_2"/>
</filter>
<filter id="filter1_f_493_2" x="-649" y="-182" width="972" height="817" filterUnits="userSpaceOnUse" color-interpolation-filters="sRGB">
<feFlood flood-opacity="0" result="BackgroundImageFix"/>
<feBlend mode="normal" in="SourceGraphic" in2="BackgroundImageFix" result="shape"/>
<feGaussianBlur stdDeviation="112" result="effect1_foregroundBlur_493_2"/>
</filter>
<filter id="filter2_d_493_2" x="104.504" y="263.608" width="223.64" height="99.392" filterUnits="userSpaceOnUse" color-interpolation-filters="sRGB">
<feFlood flood-opacity="0" result="BackgroundImageFix"/>
<feColorMatrix in="SourceAlpha" type="matrix" values="0 0 0 0 0 0 0 0 0 0 0 0 0 0 0 0 0 0 127 0" result="hardAlpha"/>
<feOffset dy="4"/>
<feGaussianBlur stdDeviation="2"/>
<feComposite in2="hardAlpha" operator="out"/>
<feColorMatrix type="matrix" values="0 0 0 0 0 0 0 0 0 0 0 0 0 0 0 0 0 0 0.25 0"/>
<feBlend mode="normal" in2="BackgroundImageFix" result="effect1_dropShadow_493_2"/>
<feBlend mode="normal" in="SourceGraphic" in2="effect1_dropShadow_493_2" result="shape"/>
</filter>
<clipPath id="clip0_493_2">
<rect width="877" height="968" fill="white"/>
</clipPath>
</defs>
</svg>
